<svg width="1280" height="720" xmlns="http://www.w3.org/2000/svg" xmlns:xlink="http://www.w3.org/1999/xlink" overflow="hidden"><g><rect x="0" y="0" width="1280" height="720" fill="#FFFFFF"/><path d="M367 11.5C367 7.91013 369.91 5 373.5 5L489.5 5C493.09 5 496 7.91013 496 11.5L496 37.5C496 41.0899 493.09 44 489.5 44L373.5 44C369.91 44 367 41.0899 367 37.5Z" stroke="#042433" stroke-width="2" stroke-miterlimit="8" fill="#156082" fill-rule="evenodd"/><text fill="#FFFFFF" font-family="DengXian,DengXian_MSFontService,sans-serif" font-weight="400" font-size="13" transform="translate(391.38 29)">对生活的期望</text><path d="M542 76.6668C542 71.8803 545.88 68 550.667 68L763.333 68C768.12 68 772 71.8803 772 76.6668L772 111.333C772 116.12 768.12 120 763.333 120L550.667 120C545.88 120 542 116.12 542 111.333Z" stroke="#042433" stroke-width="2" stroke-miterlimit="8" fill="#4E95D9" fill-rule="evenodd"/><text fill="#FFFFFF" font-family="DengXian,DengXian_MSFontService,sans-serif" font-weight="400" font-size="13" transform="translate(556.595 90)">生活为需要主动建造的系统工程，</text><text fill="#FFFFFF" font-family="DengXian,DengXian_MSFontService,sans-serif" font-weight="700" font-size="13" transform="translate(596.595 106)">重视规划和解决问题</text><path d="M121 76.6667C121 71.8802 124.88 68 129.667 68L301.333 68C306.12 68 310 71.8802 310 76.6667L310 111.333C310 116.12 306.12 120 301.333 120L129.667 120C124.88 120 121 116.12 121 111.333Z" stroke="#042433" stroke-width="2" stroke-miterlimit="8" fill="#FF0000" fill-rule="evenodd"/><text fill="#FFFFFF" font-family="DengXian,DengXian_MSFontService,sans-serif" font-weight="700" font-size="13" transform="translate(132.818 90)">享受当下的自然状态</text><text fill="#FFFFFF" font-family="DengXian,DengXian_MSFontService,sans-serif" font-weight="400" font-size="13" transform="translate(252.818 90)">，倾向</text><text fill="#FFFFFF" font-family="DengXian,DengXian_MSFontService,sans-serif" font-weight="400" font-size="13" transform="translate(132.818 109)">于</text><text fill="#FFFFFF" font-family="DengXian,DengXian_MSFontService,sans-serif" font-weight="700" font-size="13" transform="translate(146.152 109)">轻松</text><text fill="#FFFFFF" font-family="DengXian,DengXian_MSFontService,sans-serif" font-weight="400" font-size="13" transform="translate(172.818 109)">的生活</text><path d="M312 160.5 430.5 135 549 160.5 430.5 186Z" stroke="#042433" stroke-width="2" stroke-miterlimit="8" fill="#156082" fill-rule="evenodd"/><text fill="#FFFFFF" font-family="DengXian,DengXian_MSFontService,sans-serif" font-weight="400" font-size="13" transform="translate(384.017 156)">当下需要处理的</text><text fill="#FFFFFF" font-family="DengXian,DengXian_MSFontService,sans-serif" font-weight="400" font-size="13" transform="translate(410.684 172)">事情？</text><path d="M386 210C386 207.239 388.239 205 391 205L470 205C472.761 205 475 207.239 475 210L475 230C475 232.761 472.761 235 470 235L391 235C388.239 235 386 232.761 386 230Z" stroke="#042433" stroke-width="2" stroke-miterlimit="8" fill="#156082" fill-rule="evenodd"/><text fill="#FFFFFF" font-family="DengXian,DengXian_MSFontService,sans-serif" font-weight="400" font-size="13" transform="translate(404.017 224)">任务分工</text><path d="M694 160.5 785 135 876 160.5 785 186Z" stroke="#042433" stroke-width="2" stroke-miterlimit="8" fill="#156082" fill-rule="evenodd"/><text fill="#FFFFFF" font-family="DengXian,DengXian_MSFontService,sans-serif" font-weight="400" font-size="13" transform="translate(751.723 156)">尚未处理的</text><text fill="#FFFFFF" font-family="DengXian,DengXian_MSFontService,sans-serif" font-weight="400" font-size="13" transform="translate(765.057 172)">事情？</text><path d="M733 210C733 207.239 735.239 205 738 205L832 205C834.762 205 837 207.239 837 210L837 230C837 232.762 834.761 235 832 235L738 235C735.239 235 733 232.761 733 230Z" stroke="#042433" stroke-width="2" stroke-miterlimit="8" fill="#156082" fill-rule="evenodd"/><text fill="#FFFFFF" font-family="DengXian,DengXian_MSFontService,sans-serif" font-weight="400" font-size="13" transform="translate(745.056 224)">提出一起解决</text><path d="M917 220C917 217.239 919.239 215 922 215L990 215C992.761 215 995 217.239 995 220L995 240C995 242.761 992.761 245 990 245L922 245C919.239 245 917 242.761 917 240Z" stroke="#042433" stroke-width="2" stroke-miterlimit="8" fill="#156082" fill-rule="evenodd"/><text fill="#FFFFFF" font-family="DengXian,DengXian_MSFontService,sans-serif" font-weight="400" font-size="13" transform="translate(928.974 234)">独自完成</text><path d="M346 279 431 253 516 279 431 305Z" stroke="#042433" stroke-width="2" stroke-miterlimit="8" fill="#156082" fill-rule="evenodd"/><text fill="#FFFFFF" font-family="DengXian,DengXian_MSFontService,sans-serif" font-weight="400" font-size="13" transform="translate(404.017 275)">执行态度</text><text fill="#FFFFFF" font-family="DengXian,DengXian_MSFontService,sans-serif" font-weight="400" font-size="13" transform="translate(410.684 291)">和要求</text><path d="M481 332.833C481 329.059 484.059 326 487.833 326L650.167 326C653.941 326 657 329.059 657 332.833L657 360.167C657 363.941 653.941 367 650.167 367L487.833 367C484.059 367 481 363.941 481 360.167Z" stroke="#042433" stroke-width="2" stroke-miterlimit="8" fill="#4E95D9" fill-rule="evenodd"/><text fill="#FFFFFF" font-family="DengXian,DengXian_MSFontService,sans-serif" font-weight="700" font-size="13" transform="translate(522.344 343)">责任感</text><text fill="#FFFFFF" font-family="DengXian,DengXian_MSFontService,sans-serif" font-weight="400" font-size="13" transform="translate(562.344 343)">和</text><text fill="#FFFFFF" font-family="DengXian,DengXian_MSFontService,sans-serif" font-weight="700" font-size="13" transform="translate(575.677 343)">主动性</text><text fill="#FFFFFF" font-family="DengXian,DengXian_MSFontService,sans-serif" font-weight="700" font-size="13" transform="translate(502.344 359)">完成好</text><text fill="#FFFFFF" font-family="DengXian,DengXian_MSFontService,sans-serif" font-weight="400" font-size="13" transform="translate(542.344 359)">属于自己的部分</text><path d="M217 333.833C217 330.059 220.059 327 223.833 327L364.167 327C367.941 327 371 330.059 371 333.833L371 361.167C371 364.941 367.941 368 364.167 368L223.833 368C220.059 368 217 364.941 217 361.167Z" stroke="#042433" stroke-width="2" stroke-miterlimit="8" fill="#FF0000" fill-rule="evenodd"/><text fill="#FFFFFF" font-family="DengXian,DengXian_MSFontService,sans-serif" font-weight="400" font-size="13" transform="translate(233.744 343)">能力有限，</text><text fill="#FFFFFF" font-family="DengXian,DengXian_MSFontService,sans-serif" font-weight="400" font-size="13" transform="translate(300.411 343)">做了就应</text><text fill="#FFFFFF" font-family="DengXian,DengXian_MSFontService,sans-serif" font-weight="400" font-size="13" transform="translate(260.411 359)">当</text><text fill="#FFFFFF" font-family="DengXian,DengXian_MSFontService,sans-serif" font-weight="700" font-size="13" transform="translate(273.744 359)">得到肯定</text><path d="M333 406.5 432 385 531 406.5 432 428Z" stroke="#042433" stroke-width="2" stroke-miterlimit="8" fill="#156082" fill-rule="evenodd"/><text fill="#FFFFFF" font-family="DengXian,DengXian_MSFontService,sans-serif" font-weight="400" font-size="13" transform="translate(398.984 410)">任务未完成</text><path d="M493 455.333C493 451.283 496.283 448 500.333 448L643.667 448C647.717 448 651 451.283 651 455.333L651 484.667C651 488.717 647.717 492 643.667 492L500.333 492C496.283 492 493 488.717 493 484.667Z" stroke="#042433" stroke-width="2" stroke-miterlimit="8" fill="#4E95D9" fill-rule="evenodd"/><text fill="#FFFFFF" font-family="DengXian,DengXian_MSFontService,sans-serif" font-weight="400" font-size="13" transform="translate(512.036 474)">指出不足，要求改进</text><path d="M238 455.333C238 451.283 241.283 448 245.333 448L359.667 448C363.717 448 367 451.283 367 455.333L367 484.667C367 488.717 363.717 492 359.667 492L245.333 492C241.283 492 238 488.717 238 484.667Z" stroke="#042433" stroke-width="2" stroke-miterlimit="8" fill="#FF0000" fill-rule="evenodd"/><text fill="#FFFFFF" font-family="DengXian,DengXian_MSFontService,sans-serif" font-weight="400" font-size="13" transform="translate(255.48 466)">感到被贬低，需</text><text fill="#FFFFFF" font-family="DengXian,DengXian_MSFontService,sans-serif" font-weight="400" font-size="13" transform="translate(262.146 482)">要认可和鼓励</text><path d="M435 520.232 448.785 506 447.426 519.066 463.074 516.936 456.859 523.949 473.137 525.966 460.211 531.703 475 538.61 457.359 537.756 462.204 550.4 446.926 541.473 444.063 554.429 434.007 542.646 426.426 559 423.574 544.344 412.637 549.227 415.989 540.197 395.5 541.792 408.785 534.892 395 527.139 412.137 524.69 396.37 511.631 422.081 521.507 425.933 511.631Z" stroke="#042433" stroke-width="2" stroke-miterlimit="8" fill="#FFFF00" fill-rule="evenodd"/><path d="M896 294.667C896 289.88 899.88 286 904.667 286L1007.33 286C1012.12 286 1016 289.88 1016 294.667L1016 329.333C1016 334.12 1012.12 338 1007.33 338L904.667 338C899.88 338 896 334.12 896 329.333Z" stroke="#042433" stroke-width="2" stroke-miterlimit="8" fill="#156082" fill-rule="evenodd"/><text fill="#FFFFFF" font-family="DengXian,DengXian_MSFontService,sans-serif" font-weight="400" font-size="13" transform="translate(908.974 308)">心理疲惫，觉得</text><text fill="#FFFFFF" font-family="DengXian,DengXian_MSFontService,sans-serif" font-weight="400" font-size="13" transform="translate(915.64 324)">对方没有助力</text><path d="M0-1 152.167-1 152.167 37.2298 150.167 37.2298 150.167 0 151.167 1 0 1ZM155.167 35.8965 151.167 43.8965 147.167 35.8965Z" fill="#FF0000" transform="matrix(-1 1.22465e-16 1.22465e-16 1 367.167 25)"/><path d="M496 24 657.541 24 657.541 62.2197 655.541 62.2197 655.541 25 656.541 26 496 26ZM660.541 60.8864 656.541 68.8864 652.541 60.8864Z" fill="#4E95D9"/><path d="M310 94 431.022 94.0001" stroke="#FF0000" stroke-width="2" stroke-miterlimit="8" fill="none" fill-rule="evenodd"/><path d="M431 94 541.193 94.0001" stroke="#4E95D9" stroke-width="2" stroke-miterlimit="8" fill="none" fill-rule="evenodd"/><path d="M432 94 432 128.368 430 128.368 430 94ZM435 127.034 431 135.034 427 127.034Z"/><path d="M1-5.46394e-06 1.00007 12.5478-0.999931 12.5478-1 5.46394e-06ZM4.00006 11.2145 0.000104987 19.2145-3.99994 11.2145Z" transform="matrix(-1 0 0 1 431 186)"/><path d="M432 235 432 246.732 430 246.732 430 235ZM435 245.398 431 253.398 427 245.398Z"/><path d="M516 278 570.357 278 570.357 319.584 568.357 319.584 568.357 279 569.357 280 516 280ZM573.357 318.251 569.357 326.251 565.357 318.251Z" fill="#4E95D9"/><path d="M0-1 52.9694-1 52.9694 41.3368 50.9694 41.3368 50.9694 0 51.9694 1 0 1ZM55.9694 40.0035 51.9694 48.0035 47.9694 40.0035Z" fill="#FF0000" transform="matrix(-1 1.22465e-16 1.22465e-16 1 345.969 279)"/><path d="M0-1 39.3056-1 39.3056 32.7466 37.3056 32.7466 37.3056 0 38.3056 1 0 1ZM42.3056 31.4132 38.3056 39.4132 34.3056 31.4132Z" fill="#FF0000" transform="matrix(1.83697e-16 1 1 -1.83697e-16 294 368)"/><path d="M569.533 367 569.533 407.058 537.667 407.058 537.667 405.058 568.533 405.058 567.533 406.058 567.533 367ZM539 410.058 531 406.058 539 402.058Z" fill="#4E95D9"/><path d="M432 428 432 470.597" stroke="#000000" stroke-width="2" stroke-miterlimit="8" fill="none" fill-rule="evenodd"/><path d="M1.60012e-06-1 58.9454-0.999906 58.9454 1.00009-1.60012e-06 1ZM57.6121-3.99991 65.6121 0.000104987 57.6121 4.00009Z" fill="#FF0000" transform="matrix(-1 0 0 1 432.612 470)"/><path d="M432 469 485.599 469 485.599 471 432 471ZM484.265 466 492.265 470 484.265 474Z" fill="#0F9ED5"/><path d="M0-1 35.8735-1 35.8735 86.0604 33.8735 86.0604 33.8735 0 34.8735 1 0 1ZM38.8735 84.727 34.8735 92.727 30.8735 84.727Z" fill="#156082" transform="matrix(1.83697e-16 1 1 -1.83697e-16 302 492)"/><path d="M573.188 492 573.188 539.356 481.667 539.356 481.667 537.356 572.188 537.356 571.188 538.356 571.188 492ZM483 542.356 475 538.356 483 534.356Z" fill="#156082"/><path d="M549 156 674.379 156 674.379 164 549 164ZM670.379 148 694.379 160 670.379 172Z" fill="#0F9ED5"/><path d="M3-1.63912e-05 3.00002 4.21521-2.99998 4.21524-3 1.63912e-05ZM9.00001 1.21517 0.000104987 19.2152-8.99999 1.21527Z" fill="#0F9ED5" transform="matrix(-1 0 0 1 785 186)"/><path d="M549 159 687.712 159 687.712 161 549 161ZM686.379 156 694.379 160 686.379 164Z" fill="#FF0000"/><path d="M1-2.54202e-06 1.00009 34.6339-0.999912 34.6339-1 2.54202e-06ZM4.00008 33.3006 0.000104987 41.3006-3.99992 33.3006Z" fill="#0F9ED5" transform="matrix(-1 0 0 1 956 245)"/><path d="M876 157 959.015 157 959.015 199.554 953.015 199.554 953.015 160 956.015 163 876 163ZM965.015 196.554 956.015 214.554 947.015 196.554Z" fill="#4E95D9"/><path d="M1-5.46373e-06 1.00007 12.5486-0.999931 12.5486-1 5.46373e-06ZM4.00006 11.2152 0.000104987 19.2152-3.99994 11.2152Z" fill="#FF0000" transform="matrix(-1 0 0 1 785 186)"/><path d="M519 610.167C519 606.761 521.761 604 525.167 604L618.833 604C622.239 604 625 606.761 625 610.167L625 634.833C625 638.239 622.239 641 618.833 641L525.167 641C521.761 641 519 638.239 519 634.833Z" stroke="#042433" stroke-width="2" stroke-miterlimit="8" fill="#4E95D9" fill-rule="evenodd"/><text fill="#FFFFFF" font-family="DengXian,DengXian_MSFontService,sans-serif" font-weight="400" font-size="13" transform="translate(532.036 619)">失去耐心，态</text><text fill="#FFFFFF" font-family="DengXian,DengXian_MSFontService,sans-serif" font-weight="400" font-size="13" transform="translate(552.036 635)">度变差</text><path d="M0 1-23.9984 1-22.9984 0-22.9984 236.118-23.9984 235.118 398.245 235.118 397.245 236.118 397.245 120.698 399.245 120.698 399.245 237.118-24.9984 237.118-24.9984-1 0-1ZM394.245 122.031 398.245 114.031 402.245 122.031Z" transform="matrix(-6.12323e-17 -1 -1 6.12323e-17 426.032 558.245)"/><path d="M876 159 957.015 159 957.015 207.887 955.015 207.887 955.015 160 956.015 161 876 161ZM960.015 206.554 956.015 214.554 952.015 206.554Z" fill="#FF0000"/><path d="M225 610.167C225 606.761 227.761 604 231.167 604L372.833 604C376.239 604 379 606.761 379 610.167L379 634.833C379 638.239 376.239 641 372.833 641L231.167 641C227.761 641 225 638.239 225 634.833Z" stroke="#042433" stroke-width="2" stroke-miterlimit="8" fill="#FF0000" fill-rule="evenodd"/><text fill="#FFFFFF" font-family="DengXian,DengXian_MSFontService,sans-serif" font-weight="400" font-size="13" transform="translate(242.146 619)">防御心理，感受到压</text><text fill="#FFFFFF" font-family="DengXian,DengXian_MSFontService,sans-serif" font-weight="400" font-size="13" transform="translate(262.146 635)">力而更加消极</text><path d="M303 582 303 597.396 301 597.396 301 582ZM306 596.063 302 604.063 298 596.063Z" fill="#FF0000"/><path d="M428 582 572.592 582 572.592 597.9 570.592 597.9 570.592 583 571.592 584 428 584ZM575.592 596.566 571.592 604.566 567.592 596.566Z" fill="#0F9ED5"/><path d="M0-1 418.323-1 418.323 512.865 158.997 512.865 158.997 494.533 160.997 494.533 160.997 511.865 159.997 510.865 417.323 510.865 416.323 511.865 416.323 0 417.323 1 0 1ZM155.997 495.867 159.997 487.867 163.997 495.867Z" fill="#0F9ED5" transform="matrix(1 0 0 -1 625 622.867)"/><path d="M956.604 338 956.604 594.597 572 594.597 573 593.597 573 597.655 571 597.655 571 592.597 955.604 592.597 954.604 593.597 954.604 338ZM576 596.322 572 604.322 568 596.322Z" fill="#0F9ED5"/><path d="M732.53 221.001 481.667 221 481.667 219 732.53 219.001ZM483 224 475 220 483 216Z" fill="#0F9ED5"/><path d="M432.5 668.843 448.525 653 446.945 667.545 465.136 665.174 457.911 672.981 476.834 675.226 461.808 681.612 479 689.301 458.493 688.351 464.124 702.426 446.364 692.489 443.036 706.911 431.346 693.795 422.533 712 419.217 695.685 406.503 701.12 410.4 691.069 386.581 692.844 402.025 685.163 386 676.532 405.922 673.806 387.593 659.269 417.482 670.263 421.96 659.269Z" stroke="#042433" stroke-width="2" stroke-miterlimit="8" fill="#FFC000" fill-rule="evenodd"/><path d="M0-1 36.1195-1 36.1195 77.4609 34.1195 77.4609 34.1195 0 35.1195 1 0 1ZM39.1195 76.1276 35.1195 84.1276 31.1195 76.1276Z" fill="#FF0000" transform="matrix(1.83697e-16 1 1 -1.83697e-16 302 641)"/><path d="M572.644 641 572.644 689.895 485.667 689.895 485.667 687.895 571.644 687.895 570.644 688.895 570.644 641ZM487 692.895 479 688.895 487 684.895Z" fill="#0F9ED5"/><rect x="602.5" y="29.5001" width="45" height="36" stroke="#FFFFFF" stroke-linejoin="round" stroke-miterlimit="10" fill="#FFFFFF"/><text fill="#4E95D9" font-family="DengXian,DengXian_MSFontService,sans-serif" font-weight="400" font-size="21" transform="translate(611.393 54)">He</text><text fill="#FF0000" font-family="DengXian,DengXian_MSFontService,sans-serif" font-weight="400" font-size="21" transform="translate(229.991 54)">She</text><path d="M661.32 357 950 357 950 659 473 659 473 576.372 661.32 576.372Z" stroke="#4E95D9" stroke-width="2" stroke-miterlimit="8" stroke-dasharray="8 6" fill="none" fill-rule="evenodd"/><text font-family="DengXian,DengXian_MSFontService,sans-serif" font-weight="400" font-size="24" transform="translate(676.679 387)">被指出有：</text><text font-family="Arial,Arial_MSFontService,sans-serif" font-weight="400" font-size="16" transform="translate(676.679 438)">•</text><text font-family="DengXian,DengXian_MSFontService,sans-serif" font-weight="400" font-size="16" transform="translate(694.679 438)">不注意沟通态度</text><text font-family="Arial,Arial_MSFontService,sans-serif" font-weight="400" font-size="16" transform="translate(676.679 457)">•</text><text font-family="DengXian,DengXian_MSFontService,sans-serif" font-weight="400" font-size="16" transform="translate(694.679 457)">缺少对对方能力肯定，要求过高</text><text font-family="Arial,Arial_MSFontService,sans-serif" font-weight="400" font-size="16" transform="translate(676.679 476)">•</text><text font-family="DengXian,DengXian_MSFontService,sans-serif" font-weight="400" font-size="16" transform="translate(694.679 476)">不尊重对方爱好</text><text font-family="DengXian,DengXian_MSFontService,sans-serif" font-weight="400" font-size="24" transform="translate(676.679 522)">自身感受：</text><text font-family="Arial,Arial_MSFontService,sans-serif" font-weight="400" font-size="16" transform="translate(676.679 562)">•</text><text font-family="DengXian,DengXian_MSFontService,sans-serif" font-weight="400" font-size="16" transform="translate(694.679 562)">疲惫，未来需要孤军奋战</text><text font-family="Arial,Arial_MSFontService,sans-serif" font-weight="400" font-size="16" transform="translate(676.679 582)">•</text><text font-family="DengXian,DengXian_MSFontService,sans-serif" font-weight="400" font-size="16" transform="translate(694.679 582)">心理压力大，对未来合作担忧</text><path d="M15 216 135.259 216 135.259 594.587 308.322 594.587 308.322 594.9 388 594.9 388 647 15 647Z" stroke="#FF0000" stroke-width="2" stroke-miterlimit="8" stroke-dasharray="8 6" fill="none" fill-rule="evenodd"/><text font-family="DengXian,DengXian_MSFontService,sans-serif" font-weight="400" font-size="24" transform="translate(27.6412 246)">被指出有：</text><text font-family="Arial,Arial_MSFontService,sans-serif" font-weight="400" font-size="19" transform="translate(27.6412 299)">•</text><text font-family="DengXian,DengXian_MSFontService,sans-serif" font-weight="400" font-size="19" transform="translate(45.6412 299)">对事情欠</text><text font-family="DengXian,DengXian_MSFontService,sans-serif" font-weight="400" font-size="19" transform="translate(45.6412 321)">缺考虑</text><text font-family="Arial,Arial_MSFontService,sans-serif" font-weight="400" font-size="19" transform="translate(27.6412 344)">•</text><text font-family="DengXian,DengXian_MSFontService,sans-serif" font-weight="400" font-size="19" transform="translate(45.6412 344)">难以接受</text><text font-family="DengXian,DengXian_MSFontService,sans-serif" font-weight="400" font-size="19" transform="translate(45.6412 366)">不足</text><text font-family="Arial,Arial_MSFontService,sans-serif" font-weight="400" font-size="19" transform="translate(27.6412 389)">•</text><text font-family="DengXian,DengXian_MSFontService,sans-serif" font-weight="400" font-size="19" transform="translate(45.6412 389)">处理问题</text><text font-family="DengXian,DengXian_MSFontService,sans-serif" font-weight="400" font-size="19" transform="translate(45.6412 411)">习惯退缩</text><text font-family="DengXian,DengXian_MSFontService,sans-serif" font-weight="400" font-size="24" transform="translate(27.6412 467)">自身感受：</text><text font-family="Arial,Arial_MSFontService,sans-serif" font-weight="400" font-size="19" transform="translate(27.6412 520)">•</text><text font-family="DengXian,DengXian_MSFontService,sans-serif" font-weight="400" font-size="19" transform="translate(45.6412 520)">压力大，</text><text font-family="DengXian,DengXian_MSFontService,sans-serif" font-weight="400" font-size="19" transform="translate(45.6412 542)">总是</text><text font-family="DengXian,DengXian_MSFontService,sans-serif" font-weight="400" font-size="19" transform="translate(82.9745 542)">需要</text><text font-family="DengXian,DengXian_MSFontService,sans-serif" font-weight="400" font-size="19" transform="translate(45.6412 565)">改进</text><text font-family="Arial,Arial_MSFontService,sans-serif" font-weight="400" font-size="19" transform="translate(27.6412 587)">•</text><text font-family="DengXian,DengXian_MSFontService,sans-serif" font-weight="400" font-size="19" transform="translate(45.6412 587)">不受尊重，</text><text font-family="DengXian,DengXian_MSFontService,sans-serif" font-weight="400" font-size="19" transform="translate(45.6412 609)">对未来生</text><text font-family="DengXian,DengXian_MSFontService,sans-serif" font-weight="400" font-size="19" transform="translate(45.6412 632)">活幸福担</text><text font-family="DengXian,DengXian_MSFontService,sans-serif" font-weight="400" font-size="19" transform="translate(45.6412 654)">忧</text><text font-family="DengXian,DengXian_MSFontService,sans-serif" font-weight="400" font-size="16" transform="translate(439.796 199)">有</text><text font-family="DengXian,DengXian_MSFontService,sans-serif" font-weight="400" font-size="16" transform="translate(599.603 145)">无</text></g></svg>